<svg width="483.447" height="74.905" viewBox="0 0 483.447 74.905" xmlns="http://www.w3.org/2000/svg"><g id="svgGroup" stroke-linecap="round" fill-rule="evenodd" font-size="9pt" stroke="#000000" stroke-width="0.25mm" fill="#ffffff" style="stroke:#000000;stroke-width:0.25mm;fill:#ffffff"><path d="M 197.803 69.775 L 197.803 73.682 L 181.787 73.682 L 181.787 69.775 L 169.287 50.977 L 163.721 50.977 L 163.721 67.285 A 2.907 2.907 0 0 0 163.84 68.154 Q 164.135 69.095 165.158 69.375 A 3.413 3.413 0 0 0 165.82 69.482 L 170.117 69.775 L 170.117 73.682 L 147.412 73.682 L 147.412 69.775 L 152.295 69.482 A 3.151 3.151 0 0 0 153.157 69.311 Q 154.114 68.962 154.331 67.941 A 3.16 3.16 0 0 0 154.395 67.285 L 154.395 7.178 L 146.826 7.178 L 146.826 3.857 L 159.619 0 L 163.721 0 L 163.721 48.096 L 165.723 48.096 L 180.42 31.494 Q 180.61 31.256 180.615 30.879 A 1.54 1.54 0 0 0 180.615 30.859 A 1.352 1.352 0 0 0 180.552 30.429 Q 180.41 30.006 179.949 29.856 A 1.681 1.681 0 0 0 179.59 29.785 L 175.488 29.395 L 175.488 25.488 L 194.922 25.488 L 194.922 29.395 L 188.525 30.078 L 175.293 44.189 L 192.529 69.189 L 197.803 69.775 Z M 249.951 6.592 L 249.951 22.461 L 244.043 22.461 L 242.627 13.281 A 2.966 2.966 0 0 0 242.298 12.385 A 2.715 2.715 0 0 0 242.041 12.012 A 1.475 1.475 0 0 0 241.575 11.626 A 1.414 1.414 0 0 0 240.918 11.475 L 219.629 11.475 L 219.629 37.5 L 234.912 37.5 A 1.386 1.386 0 0 0 235.774 37.195 A 2.175 2.175 0 0 0 236.133 36.841 Q 236.67 36.182 236.719 35.693 L 237.646 28.662 L 242.627 28.662 L 242.627 51.172 L 237.646 51.172 L 236.719 44.189 Q 236.67 43.652 236.108 43.018 Q 235.704 42.561 235.262 42.433 A 1.252 1.252 0 0 0 234.912 42.383 L 219.629 42.383 L 219.629 66.797 A 2.173 2.173 0 0 0 219.891 67.819 A 2.925 2.925 0 0 0 220.142 68.213 Q 220.643 68.881 221.681 68.989 A 3.61 3.61 0 0 0 221.729 68.994 L 228.418 69.385 L 228.418 73.682 L 202.148 73.682 L 202.148 69.385 L 207.422 68.994 Q 208.321 68.912 208.827 68.42 A 1.774 1.774 0 0 0 209.009 68.213 A 2.752 2.752 0 0 0 209.359 67.606 A 2.118 2.118 0 0 0 209.521 66.797 L 209.521 13.477 A 2.221 2.221 0 0 0 209.295 12.515 A 3.051 3.051 0 0 0 209.009 12.036 A 1.751 1.751 0 0 0 208.014 11.367 A 2.734 2.734 0 0 0 207.422 11.279 L 201.318 10.889 L 201.318 6.592 L 249.951 6.592 Z M 337.939 69.775 L 337.939 73.682 L 315.869 73.682 L 315.869 69.775 L 320.068 69.482 A 2.485 2.485 0 0 0 321.558 68.799 A 1.96 1.96 0 0 0 322.161 67.484 A 2.659 2.659 0 0 0 322.168 67.285 L 322.168 41.26 A 16.321 16.321 0 0 0 321.953 38.521 Q 321.703 37.051 321.159 35.884 A 7.451 7.451 0 0 0 319.971 34.058 A 6.438 6.438 0 0 0 317.482 32.377 Q 315.498 31.592 312.549 31.592 A 20.357 20.357 0 0 0 306.909 32.397 A 31.119 31.119 0 0 0 301.562 34.473 L 301.563 67.285 A 2.907 2.907 0 0 0 301.682 68.154 Q 301.976 69.095 303 69.375 A 3.413 3.413 0 0 0 303.662 69.482 L 307.861 69.775 L 307.861 73.682 L 285.254 73.682 L 285.254 69.775 L 290.137 69.482 A 3.151 3.151 0 0 0 290.999 69.311 Q 291.956 68.962 292.173 67.941 A 3.16 3.16 0 0 0 292.236 67.285 L 292.236 32.568 L 285.254 32.568 L 285.254 29.297 L 297.461 25.488 L 301.563 25.488 L 301.563 30.469 Q 305.762 28.076 310.181 26.172 A 27.859 27.859 0 0 1 313.361 25.011 Q 315.9 24.268 318.066 24.268 Q 324.609 24.268 328.027 28.345 Q 330.911 31.785 331.362 37.502 A 27.953 27.953 0 0 1 331.445 39.697 L 331.445 67.285 A 2.301 2.301 0 0 0 331.554 68.007 A 1.911 1.911 0 0 0 332.056 68.799 A 2.485 2.485 0 0 0 333.545 69.482 L 337.939 69.775 Z M 393.75 69.775 L 393.75 73.682 L 378.027 73.682 L 378.027 68.359 A 45.631 45.631 0 0 1 370.752 72.949 Q 366.895 74.902 362.549 74.902 A 19.962 19.962 0 0 1 358.277 74.466 A 15.02 15.02 0 0 1 353.882 72.778 A 17.792 17.792 0 0 1 347.925 67.139 A 26.106 26.106 0 0 1 344.482 59.375 A 33.12 33.12 0 0 1 343.359 50.879 Q 343.359 44.092 346.143 38.013 Q 348.926 31.934 354.59 28.101 A 21.484 21.484 0 0 1 362.003 24.975 Q 364.933 24.317 368.331 24.271 A 37.945 37.945 0 0 1 368.848 24.268 A 28.589 28.589 0 0 1 371.671 24.414 A 37.103 37.103 0 0 1 374.048 24.731 A 131.797 131.797 0 0 1 375.349 24.953 Q 376.959 25.235 377.832 25.441 A 14.758 14.758 0 0 1 378.027 25.488 L 378.027 7.178 L 370.459 7.178 L 370.459 3.857 L 383.35 0 L 387.354 0 L 387.354 67.285 A 2.907 2.907 0 0 0 387.473 68.154 Q 387.767 69.095 388.791 69.375 A 3.413 3.413 0 0 0 389.453 69.482 L 393.75 69.775 Z M 25.684 48.584 L 25.391 48.584 Q 23.438 48.584 21.069 48.413 Q 19.046 48.267 18.466 48.21 A 6.254 6.254 0 0 1 18.311 48.193 L 18.311 66.797 A 2.173 2.173 0 0 0 18.573 67.819 A 2.925 2.925 0 0 0 18.823 68.213 Q 19.324 68.881 20.362 68.989 A 3.61 3.61 0 0 0 20.41 68.994 L 27.002 69.385 L 27.002 73.682 L 0.732 73.682 L 0.732 69.385 L 6.006 68.994 A 2.976 2.976 0 0 0 6.712 68.848 A 2.038 2.038 0 0 0 7.642 68.213 A 2.761 2.761 0 0 0 7.995 67.671 A 1.977 1.977 0 0 0 8.203 66.797 L 8.203 13.477 A 2.042 2.042 0 0 0 7.985 12.573 A 2.949 2.949 0 0 0 7.642 12.036 A 1.932 1.932 0 0 0 6.54 11.352 A 2.86 2.86 0 0 0 6.006 11.279 L 0 10.889 L 0 6.592 L 23.926 6.592 A 70.325 70.325 0 0 1 31.302 6.951 Q 39.974 7.869 44.8 11.133 A 14.265 14.265 0 0 1 50.406 18.832 Q 51.219 21.346 51.435 24.442 A 33.269 33.269 0 0 1 51.514 26.758 A 25.51 25.51 0 0 1 50.963 32.199 A 17.94 17.94 0 0 1 48.047 38.916 Q 44.58 43.75 38.721 46.167 A 32.065 32.065 0 0 1 29.723 48.382 A 39.493 39.493 0 0 1 25.684 48.584 Z M 104.639 69.775 L 104.639 73.682 L 89.844 73.682 L 88.525 67.773 L 87.036 68.848 A 31.273 31.273 0 0 1 85.9 69.627 Q 84.708 70.409 83.105 71.338 A 31.998 31.998 0 0 1 79.506 73.123 A 37.718 37.718 0 0 1 77.71 73.828 A 17.517 17.517 0 0 1 73.109 74.851 A 16.069 16.069 0 0 1 71.826 74.902 A 12.835 12.835 0 0 1 62.622 71.289 A 11.916 11.916 0 0 1 59.171 64.88 A 17.499 17.499 0 0 1 58.838 61.377 Q 58.838 58.594 59.839 56.201 A 8.34 8.34 0 0 1 61.094 54.154 Q 62.151 52.86 63.843 51.636 Q 66.712 49.56 72.255 47.573 A 72.419 72.419 0 0 1 72.778 47.388 Q 78.646 45.335 88.312 43.211 A 264.505 264.505 0 0 1 88.525 43.164 L 88.525 38.867 Q 88.525 29.004 79.199 29.004 A 23.157 23.157 0 0 0 77.213 29.084 Q 76.232 29.169 75.379 29.343 A 12.473 12.473 0 0 0 74.731 29.492 A 60.035 60.035 0 0 0 73.863 29.724 Q 72.695 30.046 72.144 30.264 A 5.275 5.275 0 0 0 72.119 30.273 L 72.119 38.965 L 64.844 38.965 A 6.403 6.403 0 0 1 62.836 38.655 A 5.954 5.954 0 0 1 62.305 38.452 Q 61.298 38.012 61.156 36.581 A 5.036 5.036 0 0 1 61.133 36.084 A 8.73 8.73 0 0 1 61.914 32.355 A 8.628 8.628 0 0 1 64.258 29.37 A 17.556 17.556 0 0 1 68.306 26.864 A 23.997 23.997 0 0 1 72.192 25.513 A 38.716 38.716 0 0 1 81.934 24.268 A 32.176 32.176 0 0 1 85.538 24.456 Q 89.203 24.87 91.553 26.196 A 11.306 11.306 0 0 1 94.606 28.659 A 10.191 10.191 0 0 1 96.338 31.519 A 18.528 18.528 0 0 1 97.479 35.884 A 24.28 24.28 0 0 1 97.705 39.258 L 97.705 67.285 A 2.301 2.301 0 0 0 97.814 68.007 A 1.911 1.911 0 0 0 98.315 68.799 A 2.485 2.485 0 0 0 99.805 69.482 L 104.639 69.775 Z M 441.943 62.598 L 441.943 68.701 A 51.271 51.271 0 0 1 432.886 73.096 Q 428.027 74.902 422.949 74.902 A 24.576 24.576 0 0 1 411.597 72.192 A 20.717 20.717 0 0 1 403.659 64.975 A 25.166 25.166 0 0 1 403.027 63.965 A 22.051 22.051 0 0 1 400.574 57.739 Q 399.922 54.977 399.79 51.764 A 40.482 40.482 0 0 1 399.756 50.098 A 34.018 34.018 0 0 1 400.421 43.213 A 25.786 25.786 0 0 1 402.783 36.475 A 22.725 22.725 0 0 1 408.467 29.349 A 21.861 21.861 0 0 1 411.133 27.466 A 22.492 22.492 0 0 1 421.157 24.346 A 27.439 27.439 0 0 1 423.242 24.268 Q 432.568 24.268 437.256 30.054 A 20.602 20.602 0 0 1 441.439 39.251 A 28.896 28.896 0 0 1 441.943 44.775 L 441.943 46.069 A 11.686 11.686 0 0 1 441.912 46.937 A 9.268 9.268 0 0 1 441.846 47.559 L 409.424 47.559 A 36.367 36.367 0 0 0 410.229 55.151 A 21.77 21.77 0 0 0 412.264 60.833 A 20.11 20.11 0 0 0 412.939 62.012 A 14.33 14.33 0 0 0 418.066 66.943 Q 421.289 68.799 426.123 68.799 A 18.954 18.954 0 0 0 434.37 66.883 A 21.827 21.827 0 0 0 434.497 66.821 A 66.478 66.478 0 0 0 439.656 64.043 A 56.17 56.17 0 0 0 441.943 62.598 Z M 144.385 25.781 L 144.385 35.693 L 140.479 35.693 A 9.08 9.08 0 0 0 138.257 33.765 A 5.184 5.184 0 0 0 136.522 33.092 A 7.171 7.171 0 0 0 135.107 32.959 Q 132.813 32.959 130.406 34.486 A 13.495 13.495 0 0 0 130.2 34.619 Q 127.894 36.141 125.527 38.69 A 38.204 38.204 0 0 0 125.098 39.16 L 125.098 67.285 A 3.044 3.044 0 0 0 125.209 68.147 Q 125.582 69.407 127.197 69.482 L 133.789 69.775 L 133.789 73.682 L 108.789 73.682 L 108.789 69.873 L 113.721 69.482 A 2.485 2.485 0 0 0 115.21 68.799 A 1.96 1.96 0 0 0 115.813 67.484 A 2.659 2.659 0 0 0 115.82 67.285 L 115.82 32.568 L 108.594 32.568 L 108.594 29.297 L 120.996 25.488 L 125.098 25.488 L 125.098 34.375 A 690.213 690.213 0 0 1 125.876 33.521 Q 127.072 32.209 128.654 30.486 A 1867.425 1867.425 0 0 1 128.76 30.371 A 33.715 33.715 0 0 1 133.447 26.123 Q 135.436 24.641 137.331 24.343 A 6.1 6.1 0 0 1 138.281 24.268 Q 139.844 24.268 141.65 24.756 A 20.505 20.505 0 0 1 142.67 25.058 Q 143.74 25.408 144.385 25.781 Z M 483.447 25.781 L 483.447 35.693 L 479.541 35.693 A 9.08 9.08 0 0 0 477.319 33.765 A 5.184 5.184 0 0 0 475.585 33.092 A 7.171 7.171 0 0 0 474.17 32.959 Q 471.875 32.959 469.469 34.486 A 13.495 13.495 0 0 0 469.263 34.619 Q 466.957 36.141 464.589 38.69 A 38.204 38.204 0 0 0 464.16 39.16 L 464.16 67.285 A 3.044 3.044 0 0 0 464.272 68.147 Q 464.644 69.407 466.26 69.482 L 472.852 69.775 L 472.852 73.682 L 447.852 73.682 L 447.852 69.873 L 452.783 69.482 A 2.485 2.485 0 0 0 454.272 68.799 A 1.96 1.96 0 0 0 454.876 67.484 A 2.659 2.659 0 0 0 454.883 67.285 L 454.883 32.568 L 447.656 32.568 L 447.656 29.297 L 460.059 25.488 L 464.16 25.488 L 464.16 34.375 A 690.213 690.213 0 0 1 464.938 33.521 Q 466.134 32.209 467.716 30.486 A 1867.425 1867.425 0 0 1 467.822 30.371 A 33.715 33.715 0 0 1 472.51 26.123 Q 474.498 24.641 476.394 24.343 A 6.1 6.1 0 0 1 477.344 24.268 Q 478.906 24.268 480.713 24.756 A 20.505 20.505 0 0 1 481.732 25.058 Q 482.802 25.408 483.447 25.781 Z M 279.834 69.775 L 279.834 73.682 L 256.348 73.682 L 256.348 69.775 L 261.23 69.482 A 3.151 3.151 0 0 0 262.093 69.311 Q 263.05 68.962 263.267 67.941 A 3.16 3.16 0 0 0 263.33 67.285 L 263.33 31.592 L 256.445 31.592 L 256.445 28.076 L 268.652 24.268 L 272.607 24.268 L 272.607 67.285 A 2.301 2.301 0 0 0 272.716 68.007 A 1.911 1.911 0 0 0 273.218 68.799 A 2.485 2.485 0 0 0 274.707 69.482 L 279.834 69.775 Z M 378.027 64.6 L 378.027 30.566 Q 376.758 30.127 374.243 29.614 A 26.217 26.217 0 0 0 371.515 29.2 A 20.758 20.758 0 0 0 369.531 29.102 A 16.174 16.174 0 0 0 363.799 30.079 A 14.273 14.273 0 0 0 357.666 34.595 A 19.053 19.053 0 0 0 354.073 41.91 Q 353.223 45.197 353.223 49.17 A 28.744 28.744 0 0 0 353.827 55.226 Q 354.737 59.448 357.013 62.67 A 18.355 18.355 0 0 0 357.031 62.695 A 12.106 12.106 0 0 0 365.799 67.954 A 16.087 16.087 0 0 0 367.725 68.066 A 14.212 14.212 0 0 0 373.413 66.919 Q 376.074 65.771 378.027 64.6 Z M 18.311 11.572 L 18.311 43.066 Q 18.518 43.066 19.98 43.261 A 197.529 197.529 0 0 1 20.532 43.335 A 35.195 35.195 0 0 0 21.936 43.499 Q 22.627 43.564 23.231 43.589 A 17.117 17.117 0 0 0 23.926 43.604 L 24.219 43.604 A 24.076 24.076 0 0 0 29.334 43.091 Q 32.721 42.355 35.272 40.56 A 14.401 14.401 0 0 0 36.548 39.551 Q 40.353 36.173 40.987 29.64 A 28.362 28.362 0 0 0 41.113 26.904 A 20.887 20.887 0 0 0 40.632 22.28 Q 39.712 18.227 37.036 15.552 Q 33.117 11.632 24.121 11.481 A 43.453 43.453 0 0 0 23.389 11.475 A 92.912 92.912 0 0 0 22.295 11.481 Q 21.326 11.493 20.166 11.523 L 18.311 11.572 Z M 88.525 64.258 L 88.525 46.973 Q 81.936 48.596 77.985 50.243 A 34.678 34.678 0 0 0 77.808 50.317 Q 73.828 52.002 71.875 53.687 Q 70.443 54.922 69.732 56.184 A 5.817 5.817 0 0 0 69.312 57.104 A 10.728 10.728 0 0 0 68.701 60.693 A 9.164 9.164 0 0 0 70.498 66.136 A 11.364 11.364 0 0 0 70.679 66.382 A 6.381 6.381 0 0 0 75.354 68.953 A 8.971 8.971 0 0 0 76.221 68.994 A 12.492 12.492 0 0 0 79.043 68.659 A 15.193 15.193 0 0 0 80.371 68.286 A 28.597 28.597 0 0 0 83.549 67.031 A 25.386 25.386 0 0 0 84.375 66.626 A 71.548 71.548 0 0 0 85.258 66.165 Q 86.434 65.541 87.262 65.037 A 23.085 23.085 0 0 0 87.378 64.966 L 88.525 64.258 Z M 409.961 43.066 L 431.934 43.066 L 431.934 40.869 A 17.028 17.028 0 0 0 431.512 36.986 A 12.578 12.578 0 0 0 429.565 32.568 A 7.654 7.654 0 0 0 424.611 29.423 A 12.11 12.11 0 0 0 422.217 29.199 A 11.008 11.008 0 0 0 414.147 32.57 A 13.983 13.983 0 0 0 413.818 32.91 A 13.549 13.549 0 0 0 410.812 38.198 Q 410.123 40.398 409.961 43.066 Z M 272.949 13.354 A 6.091 6.091 0 0 0 274.707 8.984 A 7.562 7.562 0 0 0 274.707 8.904 A 5.89 5.89 0 0 0 272.949 4.639 A 5.991 5.991 0 0 0 271.262 3.437 A 6.047 6.047 0 0 0 268.652 2.881 A 6.091 6.091 0 0 0 264.282 4.639 A 5.932 5.932 0 0 0 262.999 6.402 A 6.003 6.003 0 0 0 262.451 8.984 A 6.138 6.138 0 0 0 262.783 11.018 A 6.151 6.151 0 0 0 264.282 13.354 A 7.42 7.42 0 0 0 264.34 13.411 A 5.955 5.955 0 0 0 268.652 15.186 Q 271.191 15.186 272.949 13.354 Z" vector-effect="non-scaling-stroke"/></g></svg>